<?xml version="1.0" encoding="utf-8"?>
<!-- Generator: Adobe Illustrator 22.1.0, SVG Export Plug-In . SVG Version: 6.00 Build 0)  -->
<svg version="1.1" id="Tweet" xmlns="http://www.w3.org/2000/svg" xmlns:xlink="http://www.w3.org/1999/xlink" x="0px" y="0px"
	 viewBox="0 0 500 500" style="enable-background:new 0 0 500 500;" xml:space="preserve">
<style type="text/css">
	.st0{fill:#626262;}
</style>
<g id="qAo45h.tif">
	<g>
		<path class="st0" d="M223.6,323c-4.1,0-8.2,0-12.2,0c-0.5-0.1-0.9-0.2-1.4-0.3c-13.7-1-26.7-4.5-39-10.6c-3.2-1.6-6.3-3.4-9.4-5.2
			c9.7,0.5,19.1-0.1,28.3-2.8c9.2-2.6,17.5-6.8,25.4-12.9c-18.9-0.7-31.2-14.4-33.8-24.9c2.5,0,5.2,0.1,7.8,0
			c2.6-0.2,5.2-0.6,7.8-0.9c0-0.1,0-0.3,0-0.4c-8.4-2-15.3-6.3-20.8-13c-5.8-7-8.7-17.9-7.7-23c8.4,3.5,12.7,4.5,15.6,3.9
			c-19.1-14.1-18-37.3-10.5-48.4c19.9,23.2,44.9,36.1,75.7,38.2c-1.2-5.5-1.4-10.7-0.2-15.8c3.2-14,11.6-23.6,25.3-27.7
			c13.7-4.1,26-0.9,36.5,9c0.8,0.7,1.4,0.9,2.5,0.7c7-1.6,13.7-4.1,20-7.6c0.5-0.3,1-0.5,1.8-0.9c-3,8.6-8.1,14.9-15.2,19.8
			c6.9-0.6,13.4-2.6,20.1-5.4c-4.8,7.1-10.4,12.9-16.8,17.8c-1,0.7-1.4,1.5-1.4,2.7c0.5,23.5-6.1,44.9-19.5,64.1
			c-17,24.4-40.5,38.5-69.9,42.6C229.5,322.4,226.5,322.7,223.6,323z"/>
	</g>
</g>
</svg>
