<?xml version="1.0" encoding="utf-8"?>
<!-- Generator: Adobe Illustrator 22.1.0, SVG Export Plug-In . SVG Version: 6.00 Build 0)  -->
<svg version="1.1" id="Quote" xmlns="http://www.w3.org/2000/svg" xmlns:xlink="http://www.w3.org/1999/xlink" x="0px" y="0px"
	 viewBox="0 0 500 500" style="enable-background:new 0 0 500 500;" xml:space="preserve">
<style type="text/css">
	.st0{enable-background:new    ;}
	.st1{fill:#514853;}
</style>
<g class="st0">
	<path class="st1" d="M238.1,241.3c0,10.7-2.4,20.5-7.1,29.4c-4.7,8.9-10.3,16.6-16.6,23.1c-6.5,6.7-13.7,12.7-21.5,17.9
		c-7.8,5.3-14.1,9.2-18.8,11.6l-8.3-14.4c6.7-3.9,13.1-7.9,19.2-12.1s10.8-8.1,14-11.8c4.4-4.9,7.9-10,10.5-15.3
		c2.6-5.3,4.2-12.2,4.9-20.9h-11.7c-10.3,0-18.2-2.6-23.9-7.8c-5.7-5.2-8.5-12.5-8.5-21.7c0-6.7,2.6-13,7.8-18.9
		c5.2-5.9,12.3-8.9,21.2-8.9c13.8,0,23.8,4.6,29.8,13.8C235.1,214.5,238.1,226.5,238.1,241.3z M328.5,241.3
		c0,10.7-2.4,20.5-7.1,29.4c-4.7,8.9-10.3,16.6-16.6,23.1c-6.5,6.7-13.7,12.7-21.5,17.9c-7.8,5.3-14.1,9.2-18.8,11.6l-8.3-14.4
		c6.7-3.9,13.1-7.9,19.2-12.1s10.8-8.1,14-11.8c4.4-4.9,7.9-10,10.5-15.3c2.6-5.3,4.2-12.2,4.9-20.9H293c-10.3,0-18.2-2.6-23.9-7.8
		c-5.7-5.2-8.5-12.5-8.5-21.7c0-6.7,2.6-13,7.8-18.9c5.2-5.9,12.3-8.9,21.2-8.9c13.8,0,23.8,4.6,29.8,13.8
		C325.4,214.5,328.5,226.5,328.5,241.3z"/>
</g>
</svg>
