<?xml version="1.0" encoding="utf-8"?>
<!-- Generator: Adobe Illustrator 22.1.0, SVG Export Plug-In . SVG Version: 6.00 Build 0)  -->
<svg version="1.1" id="Text" xmlns="http://www.w3.org/2000/svg" xmlns:xlink="http://www.w3.org/1999/xlink" x="0px" y="0px"
	 viewBox="0 0 500 500" style="enable-background:new 0 0 500 500;" xml:space="preserve">
<style type="text/css">
	.st0{enable-background:new    ;}
	.st1{fill:#514853;}
</style>
<g class="st0">
	<path class="st1" d="M267.7,290.8h-43.2v-5.2c3.8-0.2,7-0.7,9.5-1.5c2.5-0.7,3.8-1.6,3.8-2.7c0-0.4,0-1-0.1-1.6
		c-0.1-0.6-0.2-1.2-0.4-1.7l-8.6-23.3h-36.5c-1.4,3.4-2.5,6.4-3.3,8.9c-0.9,2.5-1.6,4.9-2.3,7c-0.6,2.1-1.1,3.8-1.3,5.1
		c-0.2,1.3-0.4,2.4-0.4,3.2c0,2,1.5,3.5,4.6,4.5c3.1,1.1,6.5,1.7,10.4,1.9v5.2h-39.1v-5.2c1.3-0.1,2.9-0.4,4.8-0.8
		c1.9-0.5,3.5-1.1,4.7-1.9c2-1.3,3.5-2.7,4.5-4.1c1.1-1.4,2.1-3.4,3.1-6c5.2-13,11-27.7,17.3-43.9s11.9-30.7,16.8-43.4h5.9
		l34.6,89.6c0.7,1.9,1.6,3.4,2.5,4.6c0.9,1.2,2.2,2.3,3.9,3.4c1.1,0.7,2.6,1.3,4.4,1.7c1.8,0.5,3.3,0.7,4.5,0.8V290.8z M225.9,248.3
		L210.2,208l-15.5,40.3H225.9z"/>
	<path class="st1" d="M338,289.5c-2.3,0.8-4.3,1.5-6,2c-1.7,0.5-3.7,0.8-5.9,0.8c-3.8,0-6.8-0.9-9.1-2.7c-2.3-1.8-3.7-4.4-4.4-7.8
		h-0.4c-3.2,3.5-6.6,6.2-10.2,8.1c-3.6,1.9-8,2.8-13.1,2.8c-5.4,0-9.9-1.7-13.4-5c-3.5-3.3-5.2-7.7-5.2-13c0-2.8,0.4-5.3,1.2-7.5
		c0.8-2.2,2-4.2,3.5-5.9c1.2-1.5,2.8-2.8,4.8-3.9c2-1.1,3.9-2.1,5.6-2.7c2.2-0.8,6.7-2.4,13.4-4.6c6.7-2.2,11.2-4,13.6-5.3v-7.3
		c0-0.6-0.1-1.9-0.4-3.7c-0.3-1.8-0.8-3.5-1.7-5.1c-1-1.8-2.4-3.4-4.1-4.7c-1.8-1.3-4.3-2-7.6-2c-2.2,0-4.3,0.4-6.3,1.1
		c-1.9,0.8-3.3,1.5-4.1,2.4c0,1,0.2,2.4,0.7,4.3c0.5,1.9,0.7,3.7,0.7,5.3c0,1.7-0.8,3.3-2.3,4.7c-1.5,1.4-3.7,2.1-6.4,2.1
		c-2.4,0-4.2-0.9-5.4-2.6c-1.1-1.7-1.7-3.7-1.7-5.8c0-2.2,0.8-4.4,2.4-6.4c1.6-2.1,3.7-3.9,6.2-5.5c2.2-1.4,4.9-2.5,8-3.5
		c3.1-1,6.2-1.4,9.2-1.4c4.1,0,7.7,0.3,10.7,0.8c3.1,0.6,5.8,1.8,8.3,3.6c2.5,1.8,4.4,4.3,5.7,7.4c1.3,3.1,1.9,7.1,1.9,12
		c0,7-0.1,13.2-0.2,18.6s-0.2,11.3-0.2,17.7c0,1.9,0.3,3.4,1,4.5c0.7,1.1,1.7,2.1,3,2.9c0.7,0.4,1.9,0.7,3.5,0.7
		c1.6,0,3.2,0.1,4.9,0.1V289.5z M312.4,250.8c-4.2,1.2-7.8,2.4-10.9,3.6c-3.1,1.2-6,2.6-8.7,4.4c-2.4,1.7-4.4,3.6-5.8,5.9
		c-1.4,2.3-2.1,5-2.1,8.1c0,4.1,1.1,7,3.2,9c2.1,1.9,4.8,2.9,8.1,2.9c3.5,0,6.5-0.8,9.2-2.5s4.9-3.7,6.7-6L312.4,250.8z"/>
</g>
</svg>
