<?xml version="1.0" encoding="utf-8"?>
<!-- Generator: Adobe Illustrator 22.1.0, SVG Export Plug-In . SVG Version: 6.00 Build 0)  -->
<svg version="1.1" id="Header" xmlns="http://www.w3.org/2000/svg" xmlns:xlink="http://www.w3.org/1999/xlink" x="0px" y="0px"
	 viewBox="0 0 500 500" style="enable-background:new 0 0 500 500;" xml:space="preserve">
<style type="text/css">
	.st0{enable-background:new    ;}
	.st1{fill:#514853;}
	.st2{fill:#D4D4CE;}
</style>
<g class="st0">
	<path class="st1" d="M185.6,195.8h-37.5V192c0.8-0.1,2-0.2,3.6-0.3c1.6-0.1,2.6-0.3,3.2-0.6c1.2-0.5,2-1.1,2.5-1.9
		c0.5-0.8,0.7-1.8,0.7-3.1v-23.9h-29.6v23.3c0,1.1,0.2,2.1,0.7,3c0.5,0.9,1.3,1.6,2.4,2.1c0.6,0.3,1.7,0.5,3.2,0.8
		c1.5,0.3,2.7,0.5,3.7,0.5v3.8H101V192c0.8,0,2-0.1,3.6-0.3c1.6-0.2,2.7-0.4,3.4-0.7c1.2-0.4,2-1.1,2.4-1.9c0.5-0.9,0.7-1.9,0.7-3.1
		v-49c0-1.1-0.2-2.1-0.6-2.9c-0.4-0.8-1.2-1.5-2.5-2.1c-0.9-0.4-2.2-0.8-3.7-1.1c-1.5-0.3-2.6-0.5-3.3-0.6v-3.8h37.5v3.8
		c-1,0.1-2.2,0.2-3.6,0.5c-1.4,0.3-2.5,0.5-3.2,0.7c-1.3,0.4-2.1,1.1-2.5,2c-0.4,0.9-0.6,1.9-0.6,3v20.7h29.6V137
		c0-1.1-0.2-2.1-0.6-2.9c-0.4-0.8-1.3-1.5-2.5-2.1c-0.8-0.4-2-0.8-3.4-1.1s-2.5-0.6-3.4-0.7v-3.8h37.5v3.8c-1,0.1-2.2,0.2-3.5,0.4
		c-1.3,0.2-2.5,0.5-3.5,0.8c-1.2,0.4-2.1,1.1-2.5,2c-0.4,0.9-0.6,1.9-0.6,3v49.1c0,1.2,0.2,2.2,0.6,3c0.4,0.8,1.3,1.5,2.5,2.1
		c0.8,0.3,1.9,0.6,3.4,0.9c1.5,0.3,2.7,0.4,3.6,0.5V195.8z"/>
</g>
<rect x="100" y="247" class="st2" width="300" height="25"/>
<rect x="100" y="346" class="st2" width="200" height="25"/>
<rect x="100" y="296" class="st2" width="200" height="25"/>
</svg>
