<?xml version="1.0" encoding="utf-8"?>
<!-- Generator: Adobe Illustrator 22.1.0, SVG Export Plug-In . SVG Version: 6.00 Build 0)  -->
<svg version="1.1" id="Teaser_without_Image_Kopie" xmlns="http://www.w3.org/2000/svg" xmlns:xlink="http://www.w3.org/1999/xlink"
	 x="0px" y="0px" viewBox="0 0 500 500" style="enable-background:new 0 0 500 500;" xml:space="preserve">
<style type="text/css">
	.st0{fill:#D4D4CE;}
	.st1{fill:#514853;}
	.st2{enable-background:new    ;}
</style>
<rect x="100" y="273" class="st0" width="299" height="25"/>
<rect x="100" y="372" class="st0" width="200" height="25"/>
<rect x="100" y="322" class="st0" width="200" height="25"/>
<rect x="100" y="223" class="st0" width="300" height="25"/>
<g>
	<path class="st1" d="M335.4,356.6c0.1,0.7,0,1.5,0.2,2.2c1.2,4.2,1.2,7.6-2.1,11.4c-3.8,4.3-2.1,11.2,2.5,15.2
		c4.4,3.9,11,4.2,15.3,0.2c5.5-5,10.7-10.2,15.8-15.6c4.6-5,4.4-11-0.1-16.5c-1.3-1.6-1.9-3.1-0.9-5c0.9-1.6,2.3-2.4,4.2-2
		c0.9,0.2,1.8,0.8,2.5,1.4c7,7.2,7.7,19,1,26.6c-5.2,5.8-10.7,11.4-16.5,16.7c-7.7,6.9-18.5,7-26.1,0.8c-7.9-6.5-10.1-17.1-4.7-26.1
		c2.2-3.6,5.5-6.6,8.3-9.8C335,356.3,335.2,356.4,335.4,356.6z"/>
	<path class="st1" d="M386.9,361.9c-0.7-3.2-1.4-5.8-1.6-8.4c-0.1-1,0.8-2.2,1.5-3.1c5-5.7,4.8-12.7-0.7-17.8
		c-4.3-4-11.5-4.2-15.7-0.1c-5.2,5-10.3,10-15.2,15.2c-4.7,4.8-4.6,11.2-0.2,16.7c1.3,1.6,2,3.3,0.8,5.2c-1,1.6-2.5,2.2-4.3,1.8
		c-1-0.3-2-0.9-2.6-1.7c-7.2-8.2-7.1-19.5,0.6-27.8c4.7-5.1,9.6-10,14.7-14.6c11.9-10.7,29.3-5.7,33.6,9.5c1.7,6,0.5,11.7-3,16.6
		C392.6,356.4,389.7,358.9,386.9,361.9z"/>
</g>
<g class="st2">
	<path class="st1" d="M185.6,171.8h-37.5V168c0.8-0.1,2-0.2,3.6-0.3c1.6-0.1,2.6-0.3,3.2-0.6c1.2-0.5,2-1.1,2.5-1.9
		c0.5-0.8,0.7-1.8,0.7-3.1v-23.9h-29.6v23.3c0,1.1,0.2,2.1,0.7,3c0.5,0.9,1.3,1.6,2.4,2.1c0.6,0.3,1.7,0.5,3.2,0.8
		c1.5,0.3,2.7,0.5,3.7,0.5v3.8H101V168c0.8,0,2-0.1,3.6-0.3c1.6-0.2,2.7-0.4,3.4-0.7c1.2-0.4,2-1.1,2.4-1.9c0.5-0.9,0.7-1.9,0.7-3.1
		v-49c0-1.1-0.2-2.1-0.6-2.9c-0.4-0.8-1.2-1.5-2.5-2.1c-0.9-0.4-2.2-0.8-3.7-1.1c-1.5-0.3-2.6-0.5-3.3-0.6v-3.8h37.5v3.8
		c-1,0.1-2.2,0.2-3.6,0.5c-1.4,0.3-2.5,0.5-3.2,0.7c-1.3,0.4-2.1,1.1-2.5,2c-0.4,0.9-0.6,1.9-0.6,3v20.7h29.6V113
		c0-1.1-0.2-2.1-0.6-2.9c-0.4-0.8-1.3-1.5-2.5-2.1c-0.8-0.4-2-0.8-3.4-1.1s-2.5-0.6-3.4-0.7v-3.8h37.5v3.8c-1,0.1-2.2,0.2-3.5,0.4
		c-1.3,0.2-2.5,0.5-3.5,0.8c-1.2,0.4-2.1,1.1-2.5,2c-0.4,0.9-0.6,1.9-0.6,3v49.1c0,1.2,0.2,2.2,0.6,3c0.4,0.8,1.3,1.5,2.5,2.1
		c0.8,0.3,1.9,0.6,3.4,0.9c1.5,0.3,2.7,0.4,3.6,0.5V171.8z"/>
</g>
</svg>
