<svg width="1116" height="193" viewBox="0 0 1116 193" fill="none" xmlns="http://www.w3.org/2000/svg"><g clip-path="url(#clip0)"><path fill="#D1D1D1" d="M0 144h1116v1H0zm0 41h1116v1H0z"/><path fill="#EAEAE7" d="M388 23h339v77H388zM179 157h62.049v14H179zm86.869 0h62.049v14h-62.049zm86.869 0h62.049v14h-62.049zm86.869 0h62.049v14h-62.049zm86.868 0h62.049v14h-62.049zm86.869 0h62.049v14h-62.049zm86.869 0h62.049v14h-62.049zm86.869 0h62.049v14h-62.049zm86.869 0H936v14h-62.049z"/></g><defs><clipPath id="clip0"><path fill="#fff" transform="translate(0 -93)" d="M0 0h1440v1198H0z"/></clipPath></defs></svg>