<svg width="1116" height="193" viewBox="0 0 1116 193" fill="none" xmlns="http://www.w3.org/2000/svg"><g clip-path="url(#clip0)"><path fill="#D1D1D1" d="M0 144h1116v1H0zm0 41h1116v1H0z"/><path d="M407.874 75.645c0 1.092.084 1.89.252 2.394.168.462.483.777.945.945.504.168 1.302.252 2.394.252h2.142c3.276 0 6.111-.861 8.505-2.583 2.394-1.764 3.99-4.137 4.788-7.119 0-.084.084-.126.252-.126.084 0 .168.042.252.126.126.042.19.084.19.126-.379 4.158-.568 7.623-.568 10.395 0 .336-.084.588-.252.756-.126.126-.357.189-.693.189h-29.736c-.084 0-.126-.126-.126-.378s.042-.378.126-.378c1.344 0 2.31-.105 2.898-.315.63-.21 1.05-.609 1.26-1.197.252-.63.378-1.575.378-2.835V46.728c0-1.26-.126-2.184-.378-2.772-.21-.588-.63-.987-1.26-1.197-.63-.252-1.596-.378-2.898-.378-.084 0-.126-.126-.126-.378s.042-.378.126-.378l3.213.063c1.932.084 3.528.126 4.788.126 1.26 0 2.856-.042 4.788-.126l3.213-.063c.126 0 .19.126.19.378s-.064.378-.19.378c-1.302 0-2.268.126-2.898.378-.63.21-1.05.63-1.26 1.26-.21.588-.315 1.512-.315 2.772v28.854zM431.242 81c-.126 0-.189-.126-.189-.378s.063-.378.19-.378c1.301 0 2.183-.294 2.645-.882.462-.63.693-1.785.693-3.465V64.62c0-1.428-.147-2.457-.44-3.087-.295-.63-.778-.945-1.45-.945-.546 0-1.323.231-2.33.693h-.064c-.168 0-.294-.105-.378-.315-.084-.252-.063-.399.063-.441l9.513-4.41.19-.063c.21 0 .42.105.63.315.21.21.314.399.314.567v1.386c-.084 1.68-.126 3.738-.126 6.174v11.403c0 1.68.231 2.835.693 3.465.504.588 1.407.882 2.71.882.125 0 .188.126.188.378s-.063.378-.189.378a41.05 41.05 0 0 1-2.583-.063l-3.78-.063-3.717.063a41.05 41.05 0 0 1-2.583.063zm6.048-31.185c-1.218 0-2.163-.336-2.835-1.008-.672-.672-1.008-1.617-1.008-2.835 0-1.092.336-1.953 1.008-2.583.714-.672 1.66-1.008 2.835-1.008 1.176 0 2.08.315 2.71.945.63.63.944 1.512.944 2.646 0 1.218-.315 2.163-.945 2.835-.63.672-1.533 1.008-2.709 1.008zm36.647 6.867c.084 0 .126.126.126.378s-.042.378-.126.378c-1.218 0-2.31.462-3.276 1.386-.924.924-1.806 2.352-2.646 4.284L460.266 81c-.042.21-.273.315-.693.315-.336 0-.567-.105-.693-.315l-9.639-19.089c-.882-1.848-1.659-3.045-2.331-3.591-.672-.588-1.491-.882-2.457-.882-.126 0-.189-.126-.189-.378s.063-.378.189-.378c.756 0 1.386.021 1.89.063l4.221.063 4.851-.063a53.516 53.516 0 0 1 2.961-.063c.126 0 .189.126.189.378s-.063.378-.189.378c-2.436 0-3.654.483-3.654 1.449 0 .252.105.588.315 1.008l7.056 13.23 4.158-10.08c.336-.882.504-1.638.504-2.268 0-1.05-.357-1.869-1.071-2.457-.714-.588-1.701-.882-2.961-.882-.084 0-.126-.126-.126-.378s.042-.378.126-.378c1.134 0 1.995.021 2.583.063l3.78.063 2.52-.063c.504-.042 1.281-.063 2.331-.063zM475.539 81c-.126 0-.189-.126-.189-.378s.063-.378.189-.378c1.302 0 2.184-.294 2.646-.882.462-.63.693-1.785.693-3.465V64.62c0-1.428-.147-2.457-.441-3.087-.294-.63-.777-.945-1.449-.945-.546 0-1.323.231-2.331.693h-.063c-.168 0-.294-.105-.378-.315-.084-.252-.063-.399.063-.441l9.513-4.41.189-.063c.21 0 .42.105.63.315.21.21.315.399.315.567v1.386c-.084 1.68-.126 3.738-.126 6.174v11.403c0 1.68.231 2.835.693 3.465.504.588 1.407.882 2.709.882.126 0 .189.126.189.378s-.063.378-.189.378a41.05 41.05 0 0 1-2.583-.063l-3.78-.063-3.717.063a41.05 41.05 0 0 1-2.583.063zm6.048-31.185c-1.218 0-2.163-.336-2.835-1.008-.672-.672-1.008-1.617-1.008-2.835 0-1.092.336-1.953 1.008-2.583.714-.672 1.659-1.008 2.835-1.008s2.079.315 2.709.945c.63.63.945 1.512.945 2.646 0 1.218-.315 2.163-.945 2.835-.63.672-1.533 1.008-2.709 1.008zm40.112 30.429c.126 0 .189.126.189.378s-.063.378-.189.378a41.05 41.05 0 0 1-2.583-.063l-3.78-.063-3.654.063c-.672.042-1.554.063-2.646.063-.126 0-.189-.126-.189-.378s.063-.378.189-.378c1.302 0 2.184-.294 2.646-.882.462-.63.693-1.785.693-3.465v-9.072c0-2.268-.42-3.948-1.26-5.04-.798-1.092-2.079-1.638-3.843-1.638-1.008 0-2.058.21-3.15.63a9.29 9.29 0 0 0-2.772 1.701v13.419c0 1.68.231 2.835.693 3.465.504.588 1.407.882 2.709.882.126 0 .189.126.189.378s-.063.378-.189.378a41.05 41.05 0 0 1-2.583-.063l-3.78-.063-3.717.063a41.05 41.05 0 0 1-2.583.063c-.126 0-.19-.126-.19-.378s.064-.378.19-.378c1.302 0 2.184-.294 2.646-.882.462-.63.693-1.785.693-3.465V64.053c0-1.302-.168-2.247-.504-2.835-.294-.63-.777-.945-1.45-.945-.713 0-1.721.294-3.023.882h-.126c-.126 0-.231-.105-.315-.315-.042-.21-.021-.336.063-.378l8.757-4.284c.252-.084.399-.126.441-.126.462 0 .903.462 1.323 1.386.42.882.672 2.1.756 3.654 2.898-3.444 6.09-5.166 9.576-5.166 2.268 0 4.053.735 5.355 2.205 1.344 1.428 2.016 3.318 2.016 5.67v12.096c0 1.68.231 2.835.693 3.465.504.588 1.407.882 2.709.882zm17.222-2.016c2.478.42 4.452.84 5.922 1.26 1.47.42 2.73 1.134 3.78 2.142 1.092 1.008 1.638 2.436 1.638 4.284 0 2.268-.735 4.389-2.205 6.363-1.428 1.974-3.381 3.549-5.859 4.725-2.436 1.176-5.082 1.764-7.938 1.764-3.108 0-5.649-.672-7.623-2.016-1.974-1.344-2.961-3.087-2.961-5.229 0-1.428.462-2.898 1.386-4.41.924-1.512 2.646-3.171 5.166-4.977-1.26-.378-2.247-.924-2.961-1.638-.672-.714-1.008-1.68-1.008-2.898 0-1.05.399-2.121 1.197-3.213.84-1.134 2.121-2.184 3.843-3.15-1.848-.63-3.276-1.596-4.284-2.898s-1.512-2.709-1.512-4.221c0-1.68.546-3.108 1.638-4.284 1.092-1.176 2.478-2.058 4.158-2.646 1.68-.63 3.36-.945 5.04-.945 2.814 0 5.145.693 6.993 2.079 1.134-.756 2.247-1.323 3.339-1.701 1.092-.378 2.268-.567 3.528-.567.336 0 .504.588.504 1.764a8.59 8.59 0 0 1-.252 1.953c-.168.714-.315 1.008-.441.882-1.764-.714-3.339-1.071-4.725-1.071h-.504c1.092 1.302 1.638 2.772 1.638 4.41 0 1.596-.546 3.003-1.638 4.221-1.05 1.176-2.415 2.079-4.095 2.709a14.6 14.6 0 0 1-5.166.945c-1.134 0-2.205-.126-3.213-.378-.84.672-1.26 1.533-1.26 2.583 0 .924.336 1.638 1.008 2.142.714.504 1.575.882 2.583 1.134 1.008.252 2.436.546 4.284.882zm-4.662-20.79c-1.764 0-2.646 1.659-2.646 4.977 0 2.184.525 4.116 1.575 5.796 1.05 1.68 2.394 2.52 4.032 2.52.798 0 1.491-.42 2.079-1.26.63-.84.945-2.163.945-3.969 0-2.268-.588-4.179-1.764-5.733-1.176-1.554-2.583-2.331-4.221-2.331zm3.339 39.312c2.184 0 3.948-.651 5.292-1.953 1.386-1.26 2.079-2.961 2.079-5.103 0-1.596-.462-2.835-1.386-3.717-.882-.84-1.974-1.449-3.276-1.827-1.26-.336-3.003-.672-5.229-1.008l-3.402-.567c-1.176 1.386-1.764 3.36-1.764 5.922 0 2.646.714 4.683 2.142 6.111s3.276 2.142 5.544 2.142zm42.37-53.676c-4.998 0-8.589 3.255-10.773 9.765-.042.126-.168.189-.378.189-.21-.042-.315-.126-.315-.252.168-1.68.357-3.843.567-6.489.21-2.688.315-4.704.315-6.048 0-.21.105-.315.315-.315.252 0 .378.105.378.315 0 .924 1.197 1.386 3.591 1.386 3.612.126 7.833.189 12.663.189 2.478 0 5.103-.042 7.875-.126l4.284-.063c1.596 0 2.751-.105 3.465-.315.756-.21 1.239-.63 1.449-1.26.042-.168.168-.252.378-.252.252 0 .378.084.378.252-.126 1.26-.273 3.276-.441 6.048-.126 2.772-.189 4.998-.189 6.678 0 .126-.105.189-.315.189-.21 0-.336-.063-.378-.189-.63-3.234-1.806-5.649-3.528-7.245-1.722-1.638-3.843-2.457-6.363-2.457-1.218 0-2.037.273-2.457.819-.378.504-.567 1.491-.567 2.961v29.043c0 1.302.126 2.247.378 2.835.252.588.735.987 1.449 1.197.714.21 1.848.315 3.402.315.126 0 .189.126.189.378s-.063.378-.189.378a79.67 79.67 0 0 1-3.591-.063l-5.229-.063-5.103.063c-.882.042-2.1.063-3.654.063-.126 0-.189-.126-.189-.378s.063-.378.189-.378c1.512 0 2.625-.105 3.339-.315.756-.21 1.26-.609 1.512-1.197.294-.63.441-1.575.441-2.835V46.728c0-1.428-.189-2.394-.567-2.898-.378-.504-1.155-.756-2.331-.756zM608.922 81c-.126 0-.189-.126-.189-.378s.063-.378.189-.378c1.302 0 2.184-.294 2.646-.882.462-.63.693-1.785.693-3.465V64.62c0-1.428-.147-2.457-.441-3.087-.294-.63-.777-.945-1.449-.945-.546 0-1.323.231-2.331.693h-.063c-.168 0-.294-.105-.378-.315-.084-.252-.063-.399.063-.441l9.513-4.41.189-.063c.21 0 .42.105.63.315.21.21.315.399.315.567v1.386c-.084 1.68-.126 3.738-.126 6.174v11.403c0 1.68.231 2.835.693 3.465.504.588 1.407.882 2.709.882.126 0 .189.126.189.378s-.063.378-.189.378a41.05 41.05 0 0 1-2.583-.063l-3.78-.063-3.717.063a41.05 41.05 0 0 1-2.583.063zm6.048-31.185c-1.218 0-2.163-.336-2.835-1.008-.672-.672-1.008-1.617-1.008-2.835 0-1.092.336-1.953 1.008-2.583.714-.672 1.659-1.008 2.835-1.008s2.079.315 2.709.945c.63.63.945 1.512.945 2.646 0 1.218-.315 2.163-.945 2.835-.63.672-1.533 1.008-2.709 1.008zm55.862 30.429c.168 0 .252.126.252.378S671 81 670.832 81a41.05 41.05 0 0 1-2.583-.063l-3.78-.063-3.654.063c-.672.042-1.554.063-2.646.063-.126 0-.189-.126-.189-.378s.063-.378.189-.378c1.302 0 2.184-.294 2.646-.882.504-.63.756-1.785.756-3.465v-9.072c0-2.268-.399-3.948-1.197-5.04-.756-1.092-1.932-1.638-3.528-1.638a7.906 7.906 0 0 0-3.213.693 8.277 8.277 0 0 0-2.709 1.89v13.167c0 1.68.231 2.835.693 3.465.504.588 1.407.882 2.709.882.168 0 .252.126.252.378s-.084.378-.252.378a41.05 41.05 0 0 1-2.583-.063l-3.78-.063-3.654.063c-.672.042-1.554.063-2.646.063-.126 0-.189-.126-.189-.378s.063-.378.189-.378c1.302 0 2.184-.294 2.646-.882.504-.63.756-1.785.756-3.465v-9.072c0-2.268-.399-3.948-1.197-5.04-.756-1.092-1.932-1.638-3.528-1.638-1.008 0-2.016.21-3.024.63a7.944 7.944 0 0 0-2.583 1.638v13.482c0 1.68.231 2.835.693 3.465.504.588 1.407.882 2.709.882.126 0 .189.126.189.378s-.063.378-.189.378a41.05 41.05 0 0 1-2.583-.063l-3.78-.063-3.717.063a41.05 41.05 0 0 1-2.583.063c-.126 0-.189-.126-.189-.378s.063-.378.189-.378c1.302 0 2.184-.294 2.646-.882.462-.63.693-1.785.693-3.465V64.053c0-1.302-.168-2.247-.504-2.835-.294-.63-.777-.945-1.449-.945-.714 0-1.722.294-3.024.882h-.126c-.126 0-.231-.105-.315-.315-.042-.21-.021-.336.063-.378l8.757-4.284c.252-.084.399-.126.441-.126.462 0 .903.462 1.323 1.386.42.882.672 2.079.756 3.591 2.856-3.402 5.922-5.103 9.198-5.103 1.974 0 3.549.483 4.725 1.449 1.176.966 1.89 2.352 2.142 4.158 2.898-3.738 6.111-5.607 9.639-5.607 2.268 0 3.99.651 5.166 1.953 1.218 1.302 1.827 3.276 1.827 5.922v12.096c0 1.68.231 2.835.693 3.465.504.588 1.407.882 2.709.882zm25.599-3.402c.084 0 .168.084.252.252.126.168.147.294.063.378-1.554 1.512-3.129 2.604-4.725 3.276-1.596.672-3.339 1.008-5.229 1.008-2.646 0-4.935-.546-6.867-1.638-1.932-1.134-3.402-2.625-4.41-4.473a12.663 12.663 0 0 1-1.512-6.048c0-2.436.63-4.683 1.89-6.741 1.26-2.1 2.982-3.738 5.166-4.914 2.184-1.218 4.62-1.827 7.308-1.827 2.604 0 4.599.567 5.985 1.701 1.386 1.092 2.079 2.604 2.079 4.536 0 1.218-.231 1.827-.693 1.827h-3.843l-11.34.126c-.126.798-.189 1.68-.189 2.646 0 3.612.84 6.468 2.52 8.568 1.722 2.1 4.074 3.15 7.056 3.15 1.05 0 2.142-.147 3.276-.441a10.716 10.716 0 0 0 3.087-1.323l.126-.063zm-10.395-19.467c-1.26 0-2.352.504-3.276 1.512-.924 1.008-1.596 2.394-2.016 4.158l8.946-.189c-.126-3.654-1.344-5.481-3.654-5.481zm19.717 2.331a4.41 4.41 0 0 0 1.26 3.15c.882.882 2.142 1.806 3.78 2.772 1.596.924 2.772 1.659 3.528 2.205.798.504 1.512 1.239 2.142 2.205.63.924.945 2.058.945 3.402a8.05 8.05 0 0 1-1.071 4.032c-.714 1.26-1.785 2.289-3.213 3.087-1.428.756-3.129 1.134-5.103 1.134-2.31 0-4.494-.567-6.552-1.701-.252-.252-.378-.504-.378-.756l-.126-6.237c0-.126.105-.189.315-.189.252-.042.399-.021.441.063.672 2.1 1.785 3.885 3.339 5.355 1.554 1.47 3.129 2.205 4.725 2.205.882 0 1.575-.273 2.079-.819.546-.546.819-1.344.819-2.394 0-1.554-.441-2.772-1.323-3.654-.882-.924-2.184-1.869-3.906-2.835-1.47-.798-2.583-1.449-3.339-1.953-.756-.504-1.428-1.218-2.016-2.142-.588-.924-.882-2.058-.882-3.402 0-2.478.882-4.284 2.646-5.418 1.764-1.176 3.927-1.764 6.489-1.764.966 0 1.827.063 2.583.189.798.126 1.68.378 2.646.756.378.126.567.357.567.693 0 1.05-.021 1.869-.063 2.457l-.063 3.15c0 .126-.126.189-.378.189s-.378-.063-.378-.189c0-.798-.336-1.659-1.008-2.583-.672-.966-1.554-1.785-2.646-2.457-1.05-.672-2.142-1.008-3.276-1.008-1.722 0-2.583.819-2.583 2.457z" fill="#555" fill-opacity=".87"/><path fill="#EAEAE7" d="M179 157h62.049v14H179zm86.869 0h62.049v14h-62.049zm86.869 0h62.049v14h-62.049zm86.869 0h62.049v14h-62.049zm86.868 0h62.049v14h-62.049zm86.869 0h62.049v14h-62.049zm86.869 0h62.049v14h-62.049zm86.869 0h62.049v14h-62.049zm86.869 0H936v14h-62.049z"/></g><defs><clipPath id="clip0"><path fill="#fff" transform="translate(0 -93)" d="M0 0h1440v1198H0z"/></clipPath></defs></svg>