<svg width="1401" height="239" viewBox="0 0 1401 239" xmlns="http://www.w3.org/2000/svg"><title>placeholder-teaser-row</title><g fill="none" fill-rule="evenodd"><path fill="#D4D4CE" d="M0 2.25h328.003V153H0z"/><g stroke="#FFF" stroke-width="2" stroke-linecap="square"><path d="M1.494 2.126l327.01 150.497M328.503 2.126L1.493 152.623"/></g><path fill="#9F9E97" d="M0 186h299v20H0zM0 219h229v20H0zM0 162h329v20H0z"/><g><path fill="#D4D4CE" d="M357 2.25h328.003V153H357z"/><g stroke="#FFF" stroke-width="2" stroke-linecap="square"><path d="M358.494 2.126l327.01 150.497M685.503 2.126l-327.01 150.497"/></g><path fill="#9F9E97" d="M357 186h299v20H357zM357 219h229v20H357zM357 162h329v20H357z"/></g><g><path fill="#D4D4CE" d="M714 2.25h328.003V153H714z"/><g stroke="#FFF" stroke-width="2" stroke-linecap="square"><path d="M715.494 2.126l327.01 150.497M1042.503 2.126l-327.01 150.497"/></g><path fill="#9F9E97" d="M714 186h299v20H714zM714 219h229v20H714zM714 162h329v20H714z"/></g><g><path fill="#D4D4CE" d="M1071 2.25h328.003V153H1071z"/><g stroke="#FFF" stroke-width="2" stroke-linecap="square"><path d="M1072.494 2.126l327.01 150.497M1399.503 2.126l-327.01 150.497"/></g><path fill="#9F9E97" d="M1071 186h299v20h-299zM1071 219h229v20h-229zM1071 162h329v20h-329z"/></g></g></svg>
