<?xml version="1.0" encoding="UTF-8" standalone="no"?>
<svg width="203px" height="137px" viewBox="0 0 203 137" version="1.1" xmlns="http://www.w3.org/2000/svg" xmlns:xlink="http://www.w3.org/1999/xlink" xmlns:sketch="http://www.bohemiancoding.com/sketch/ns">
    <!-- Generator: Sketch 3.5.1 (25234) - http://www.bohemiancoding.com/sketch -->
    <title>2 Columns - Column 2</title>
    <desc>Created with Sketch.</desc>
    <defs></defs>
    <g id="Article" stroke="none" stroke-width="1" fill="none" fill-rule="evenodd" sketch:type="MSPage">
        <g id="Page-Edit---04" sketch:type="MSArtboardGroup" transform="translate(-621.000000, -749.000000)">
            <g id="Digital" sketch:type="MSLayerGroup" transform="translate(75.000000, 47.000000)">
                <g id="Teaser-component-Copy" transform="translate(1.000000, 606.000000)" sketch:type="MSShapeGroup">
                    <g id="Teaser-placeholder-Copy-3" transform="translate(545.000000, 96.000000)">
                        <rect id="Rectangle-134-Copy-5" fill="#2F2F2F" x="0" y="0" width="161" height="16"></rect>
                        <rect id="Rectangle-134-Copy-6" fill="#2F2F2F" x="0" y="23" width="203" height="11"></rect>
                        <rect id="Rectangle-134-Copy-11" fill="#2F2F2F" x="0" y="103" width="161" height="16"></rect>
                        <rect id="Rectangle-134-Copy-10" fill="#2F2F2F" x="0" y="126" width="203" height="11"></rect>
                        <g id="Repeatable-Items-Copy" transform="translate(81.000000, 42.000000)">
                            <rect id="Rectangle-610" fill="#2F2F2F" x="10" y="0" width="3" height="52"></rect>
                            <circle id="Oval-23" fill="#2F2F2F" cx="12" cy="26" r="12"></circle>
                            <path d="M7.765,24.48 L5.53,24.48 L5.53,27 L7.765,27 L7.765,24.48 Z M13.06,24.48 L10.81,24.48 L10.81,27 L13.06,27 L13.06,24.48 Z M18.355,24.48 L16.105,24.48 L16.105,27 L18.355,27 L18.355,24.48 Z" id="Type-something" fill="#fff"></path>
                        </g>
                    </g>
                </g>
            </g>
        </g>
    </g>
</svg>
