
<svg width="1405" height="602" viewBox="0 0 1405 602" xmlns="http://www.w3.org/2000/svg"><title>Group 3</title><g fill="none" fill-rule="evenodd"><path fill="#D4D4CE" d="M359 1h329v600H359z"/><g stroke="#FFF" stroke-width="2" stroke-linecap="square"><path d="M359.5 1.5l329 599M688.5 1.5l-329 599"/></g><path fill="#9F9E97" d="M387 542h200v24H387z"/><g fill="#9F9E97"><path d="M387 492h186v36H387zM387 452h231v36H387zM387 412h225v36H387zM387 372h255v36H387zM387 332h205v36H387z"/></g><path fill="#D4D4CE" d="M1 1h329v600H1z"/><g stroke="#FFF" stroke-width="2" stroke-linecap="square"><path d="M1.5 1.5l329 599M330.5 1.5l-329 599"/></g><path fill="#9F9E97" d="M29 542h200v24H29z"/><g fill="#9F9E97"><path d="M29 492h186v36H29zM29 452h231v36H29zM29 412h225v36H29zM29 372h255v36H29zM29 332h205v36H29z"/></g><g><path fill="#D4D4CE" d="M717 1h329v600H717z"/><path d="M717.498 1.5l328.004 599M1045.502 1.5l-328.004 599" stroke="#FFF" stroke-width="2" stroke-linecap="square"/><path fill="#9F9E97" d="M744.915 542h200v24h-200z"/></g><g fill="#9F9E97"><path d="M745 492h186v36H745zM745 452h231v36H745zM745 412h225v36H745zM745 372h255v36H745zM745 332h205v36H745z"/></g><g><path fill="#D4D4CE" d="M1074 1h329v600h-329z"/><g stroke="#FFF" stroke-width="2" stroke-linecap="square"><path d="M1075.498 1.5l328.004 599M1403.502 1.5l-328.004 599"/></g><path d="M1101.915 542h200v24h-200z" fill="#9F9E97"/></g><g fill="#9F9E97"><path d="M1102 492h186v36h-186zM1102 452h231v36h-231zM1102 412h225v36h-225zM1102 372h255v36h-255zM1102 332h205v36h-205z"/></g></g></svg>
