<?xml version="1.0" encoding="UTF-8"?>
<svg width="1047px" height="602px" viewBox="0 0 1047 602" version="1.1" xmlns="http://www.w3.org/2000/svg" xmlns:xlink="http://www.w3.org/1999/xlink">
    <!-- Generator: Sketch 40.2 (33826) - http://www.bohemiancoding.com/sketch -->
    <title>Group 8</title>
    <desc>Created with Sketch.</desc>
    <defs></defs>
    <g id="Page-1" stroke="none" stroke-width="1" fill="none" fill-rule="evenodd">
        <g id="Group-3" transform="translate(-359.000000, 1.000000)">
            <g id="Group-8" transform="translate(360.000000, 0.000000)">
                <g id="top-row-teaser">
                    <rect fill="#D4D4CE" x="0" y="0" width="329" height="600"></rect>
                    <g id="cross" stroke="#FFFFFF" stroke-width="2" stroke-linecap="square">
                        <path d="M0.5,0.5 L329.5,599.5" id="Line"></path>
                        <path d="M329.5,0.5 L0.5,599.5" id="Line"></path>
                    </g>
                    <rect id="Rectangle-2" fill="#9F9E97" x="28" y="541" width="200" height="24"></rect>
                    <g id="teaser-row__headline-inner" transform="translate(28.000000, 331.000000)" fill="#9F9E97">
                        <rect id="Rectangle-2" x="0" y="160" width="186" height="36"></rect>
                        <rect id="Rectangle-2" x="0" y="120" width="231" height="36"></rect>
                        <rect id="Rectangle-2" x="0" y="80" width="225" height="36"></rect>
                        <rect id="Rectangle-2" x="0" y="40" width="255" height="36"></rect>
                        <rect id="Rectangle-2" x="0" y="0" width="205" height="36"></rect>
                    </g>
                </g>
                <g id="Group-7" transform="translate(358.000000, 0.000000)">
                    <rect id="top-row-teaser" fill="#D4D4CE" x="0" y="0" width="329" height="600"></rect>
                    <path d="M0.498484848,0.5 L328.501515,599.5" id="Line" stroke="#FFFFFF" stroke-width="2" stroke-linecap="square"></path>
                    <path d="M328.501515,0.5 L0.498484848,599.5" id="Line" stroke="#FFFFFF" stroke-width="2" stroke-linecap="square"></path>
                    <rect id="Rectangle-2" fill="#9F9E97" x="27.9151515" y="541" width="200" height="24"></rect>
                    <g id="cross"></g>
                </g>
                <g id="teaser-row__headline-inner" transform="translate(386.000000, 331.000000)" fill="#9F9E97">
                    <rect id="Rectangle-2" x="0" y="160" width="186" height="36"></rect>
                    <rect id="Rectangle-2" x="0" y="120" width="231" height="36"></rect>
                    <rect id="Rectangle-2" x="0" y="80" width="225" height="36"></rect>
                    <rect id="Rectangle-2" x="0" y="40" width="255" height="36"></rect>
                    <rect id="Rectangle-2" x="0" y="0" width="205" height="36"></rect>
                </g>
                <g id="Group-6" transform="translate(715.000000, 0.000000)">
                    <rect id="top-row-teaser" fill="#D4D4CE" x="0" y="0" width="329" height="600"></rect>
                    <g id="cross" transform="translate(1.000000, 0.000000)" stroke="#FFFFFF" stroke-width="2" stroke-linecap="square">
                        <path d="M0.498484848,0.5 L328.501515,599.5" id="Line"></path>
                        <path d="M328.501515,0.5 L0.498484848,599.5" id="Line"></path>
                    </g>
                    <g id="Group-5" transform="translate(27.915152, 541.000000)" fill="#9F9E97">
                        <rect id="Rectangle-2" x="0" y="0" width="200" height="24"></rect>
                    </g>
                </g>
                <g id="teaser-row__headline-inner" transform="translate(743.000000, 331.000000)" fill="#9F9E97">
                    <rect id="Rectangle-2" x="0" y="160" width="186" height="36"></rect>
                    <rect id="Rectangle-2" x="0" y="120" width="231" height="36"></rect>
                    <rect id="Rectangle-2" x="0" y="80" width="225" height="36"></rect>
                    <rect id="Rectangle-2" x="0" y="40" width="255" height="36"></rect>
                    <rect id="Rectangle-2" x="0" y="0" width="205" height="36"></rect>
                </g>
            </g>
        </g>
    </g>
</svg>